<svg xmlns="http://www.w3.org/2000/svg" width="160" height="50" viewBox="0 0 160 50">
  <g id="logo-color" transform="translate(0.001 0.03)">
    <path id="パス_43" data-name="パス 43" d="M81.627,58.13a2.832,2.832,0,0,1,2.084.829A2.89,2.89,0,0,1,81.665,63.9a2.823,2.823,0,0,1-2.061-.837,2.74,2.74,0,0,1-.844-2.023,2.946,2.946,0,0,1,.38-1.46,2.843,2.843,0,0,1,2.487-1.445m.03.532a2.246,2.246,0,0,0-1.156.319,2.289,2.289,0,0,0-.852.852,2.373,2.373,0,0,0-.3,1.2,2.327,2.327,0,0,0,3.491,2.008,2.2,2.2,0,0,0,.844-.844,2.444,2.444,0,0,0,.3-1.194,2.289,2.289,0,0,0-.3-1.179,2.4,2.4,0,0,0-2.023-1.164" transform="translate(-18.858 -13.925)" fill="#657a81"/>
    <path id="パス_44" data-name="パス 44" d="M87.83,58.31h.563v2.061l2.19-2.061h.73l-2.632,2.464,2.837,3.019h-.73l-2.4-2.556v2.556H87.83Z" transform="translate(-21.029 -13.968)" fill="#657a81"/>
    <rect id="長方形_12" data-name="長方形 12" width="160" height="50" transform="translate(-0.001 -0.03)" fill="#848484" opacity="0"/>
    <rect id="長方形_29" data-name="長方形 29" width="0.548" height="5.484" transform="translate(71.539 44.342)" fill="#657a81"/>
    <path id="パス_45" data-name="パス 45" d="M96.84,63.794V58.31h.114l3.651,4.2v-4.2h.54v5.484h-.122L97.4,59.641v4.153Z" transform="translate(-23.187 -13.968)" fill="#657a81"/>
    <path id="パス_46" data-name="パス 46" d="M106.35,58.31l2.556,5.484h-.593l-.867-1.8H105.08l-.852,1.8h-.608l2.594-5.484Zm-.068,1.164-.943,1.985h1.871Z" transform="translate(-24.81 -13.968)" fill="#657a81"/>
    <path id="パス_47" data-name="パス 47" d="M110.28,58.31h.563l1.118,3.947,1.574-3.947h.114l1.552,3.947,1.141-3.947h.555l-1.574,5.484h-.1L113.6,59.641l-1.658,4.153h-.106Z" transform="translate(-26.404 -13.968)" fill="#657a81"/>
    <path id="パス_48" data-name="パス 48" d="M121.2,58.31l2.556,5.484h-.593l-.859-1.8H119.94l-.852,1.8h-.608l2.594-5.484Zm-.068,1.164-.936,1.985h1.871Z" transform="translate(-28.368 -13.968)" fill="#657a81"/>
    <path id="パス_49" data-name="パス 49" d="M6.176,45.165c-2.228-.259-3.932-.388-4.685-.418-.3-.03-.677-.114-.221-.319s3.742-1.476,4.769-1.247c.243.084.289.221.464.145a3.485,3.485,0,0,0,.548-.449s.274-.243.03-.388a3.883,3.883,0,0,0-2.365-.106A10.243,10.243,0,0,0,.281,44.115a.849.849,0,0,0-.259.768.976.976,0,0,0,.943.707c.677.068,3.529.243,4.016.289s2.921.38,2.791,1.415c-.076.608-.54,1.186-2.213,1.186a3.941,3.941,0,0,1-2.472-.829c-.046-.129-.122-.373-.289-.3s-.882.4-.882.4-.243.228.084.548,1.126.981,3.194.981,3.643-.966,3.643-2.647c0-.327-.434-1.225-2.662-1.476m11.082-.259c0-.274-.167-.183-.167-.183s-.335.243-.517.388-.266.411-.289.958-.578,2.411-1.491,2.388-.844-2.723-.844-2.723c.061-.517-.19-.4-.19-.4s-.243.167-.54.38-.145,1.6-.038,2.327A1.422,1.422,0,0,0,14.5,49.371c.707,0,1.719-1.384,1.818-1.552s.167,0,.183.053a2.567,2.567,0,0,0,.578,1.118.314.314,0,0,0,.411.084s.312-.327.418-.479a.312.312,0,0,0-.023-.418c-.616-.73-.631-3-.631-3.27m10.481.753a10.021,10.021,0,0,0-2.54,1.7c-.205.16-.213.076-.228-.038a56.032,56.032,0,0,0-.806-6.358c-.061-.373-.327-.152-.327-.152a4.7,4.7,0,0,0-.472.4.854.854,0,0,0-.091.418s.145,1.285.183,1.43a.4.4,0,0,1-.106.3s-2.54.289-2.632.289-.068-.1-.084-.441-.236-2.137-.274-2.4-.434.038-.662.167-.145.555-.145.555.061,2.046.068,2.19-.662.251-.852.281a3,3,0,0,0-1.164.38c-.365.251-.145.411.251.54a3.745,3.745,0,0,0,1.468-.243c.373-.106.38.373.38.373s0,1.263-.015,1.719a12.654,12.654,0,0,0,.106,2.023c.106.738.563.335.852.122s.183-.791.2-1-.183-2.9-.167-3.187.373-.357.54-.4a6.122,6.122,0,0,0,2.13-.228.154.154,0,0,1,.221.068s.357,3.7.418,4.32.243.829.456.829.456-.365.707-.73c1.24-1.81,1.863-1.939,2.046-2.046s.3.084.38.221a3.231,3.231,0,0,1,.3,1.62.64.64,0,0,0,.35.616c.129.076.266-.1.532-.327a.718.718,0,0,0,.266-.5,8.618,8.618,0,0,0-.129-1.339c-.152-.859-.517-1.247-1.164-1.179m72.14-1.612a8.219,8.219,0,0,0,1.932-.152c.175-.053.943-.532.654-.776-.106-.084-.342-.053-.464-.038,0,0-2.54.289-2.639.289s-.068-.091-.084-.441-.243-2.145-.274-2.4-.434.038-.662.167-.145.555-.145.555.061,2.046.076,2.19-.662.251-.852.274a2.911,2.911,0,0,0-1.164.388c-.365.251-.145.411.251.54a3.608,3.608,0,0,0,1.468-.243c.373-.106.388.373.388.373s0,1.263-.015,1.719a13.522,13.522,0,0,0,.106,2.016c.106.738.563.335.859.122s.183-.8.19-1-.183-2.905-.167-3.187c.008-.3.373-.365.54-.4m52.685,0a8.219,8.219,0,0,0,1.932-.152c.175-.053.943-.532.654-.776-.106-.084-.342-.053-.464-.038,0,0-2.54.289-2.632.289s-.068-.091-.084-.441-.243-2.145-.274-2.4-.434.038-.662.167-.145.555-.145.555.061,2.046.068,2.19-.662.251-.852.274a2.975,2.975,0,0,0-1.171.388c-.365.251-.145.411.259.54a3.608,3.608,0,0,0,1.468-.243c.373-.106.388.373.388.373s0,1.263-.015,1.719a13.521,13.521,0,0,0,.106,2.016c.106.738.563.335.859.122s.183-.8.19-1-.183-2.905-.167-3.187c.008-.3.373-.365.54-.4M79.921,45.659a10.021,10.021,0,0,0-2.54,1.7c-.205.16-.213.076-.228-.038a56.033,56.033,0,0,0-.806-6.358c-.061-.373-.327-.16-.327-.16a3.96,3.96,0,0,0-.472.4.8.8,0,0,0-.091.426s.145,1.285.183,1.43l.106,1.118s.183,1.886.312,3.194a4.443,4.443,0,0,0-.5.122c-.319.1-3,1.217-3.772.936s-1.126-.464-1.11-1.361.943-1,1.126-1,.532.03.624.205.289.5.449.434a4.722,4.722,0,0,0,.662-.578.271.271,0,0,0-.015-.3,1.338,1.338,0,0,0-1.46-.723c-.981.243-2.73,1.65-2.411,2.73s1.072,1.688,1.939,1.544a17.436,17.436,0,0,0,4.533-1.346c.023.205.038.38.046.472.061.624.243.829.456.829s.456-.365.707-.73c1.24-1.81,1.871-1.939,2.046-2.046s.3.084.38.221a3.151,3.151,0,0,1,.3,1.62.631.631,0,0,0,.35.616c.129.076.266-.1.532-.327a.718.718,0,0,0,.266-.5,8.618,8.618,0,0,0-.129-1.339c-.145-.859-.517-1.247-1.156-1.179m-39.778-.205s-1.506-.145-1.863-.16a4.311,4.311,0,0,0-1.346.479.316.316,0,0,1-.35-.03s-.205-.373-.289-.532-.3-.046-.3-.046a2.887,2.887,0,0,0-.335.319.556.556,0,0,0-.114.548,14.961,14.961,0,0,1,.342,1.932A1.08,1.08,0,0,0,35.6,48a22.034,22.034,0,0,1-2.746.578,2.2,2.2,0,0,1-1.993-.532c-.19-.175-.243-.479-.114-.479,3.483-.145,3.483-1.521,3.483-1.681s-.342-.723-1.384-.723-3.43.981-3.43,2.2.867,2.054,3,2.054a5.312,5.312,0,0,0,3.354-1.08,2.038,2.038,0,0,0,.137-.152l.106.8s.129.35.3.35.342-.221.548-.449A.691.691,0,0,0,37,48.321s-.129-.966-.145-1.217a.674.674,0,0,1,.16-.593,3.228,3.228,0,0,1,1.186-.335,8.264,8.264,0,0,1,1.445.205.34.34,0,0,0,.365-.16,1.075,1.075,0,0,0,.3-.38c.183-.312-.175-.388-.175-.388m-8.883.913a3,3,0,0,1,1.331-.319c.175.053.593.129.434.221s-.434.373-1.7.319c-.008,0-.555.015-.068-.221m117.79-1.186s-1.506-.145-1.863-.16a4.311,4.311,0,0,0-1.346.479.316.316,0,0,1-.35-.03s-.205-.365-.289-.532-.3-.046-.3-.046a2.888,2.888,0,0,0-.335.319.568.568,0,0,0-.114.548c.19.578.479,2.951.479,2.951s.129.357.3.357.335-.228.548-.449a.658.658,0,0,0,.129-.563s-.129-.966-.145-1.217a.667.667,0,0,1,.16-.593,3.228,3.228,0,0,1,1.186-.335,7.587,7.587,0,0,1,1.445.213.355.355,0,0,0,.373-.16,1.182,1.182,0,0,0,.3-.388c.175-.312-.183-.4-.183-.4M46.531,45.165c-1.1-.19-3.978,2.1-4.252,2.327s-.3-.076-.3-.076-.19-1.361-.274-1.673-.259-.221-.259-.221a6.12,6.12,0,0,0-.768.335.344.344,0,0,0-.129.38,20.218,20.218,0,0,1,.319,2.525.538.538,0,0,0,.479.479c.578.015,2.076-1.7,2.472-2.1A4.777,4.777,0,0,1,45.6,46c.608-.16.677-.015,1.156.4s.418,2.213.434,2.487a.563.563,0,0,0,.494.449c.145,0,.4-.205.593-.365a5.326,5.326,0,0,0-.1-2.388c-.16-.943-.548-1.232-1.643-1.422M91.725,46.42c-.145,0-.167-.441-.167-.441s.023-4.221.023-4.434a.209.209,0,0,0-.213-.213,2.619,2.619,0,0,0-.608.312.769.769,0,0,0-.228.677s-.038,3.7,0,3.887-.129.426-.723.441-2.358.335-2.472.335-.228-.213-.251-.548a36.061,36.061,0,0,1-.046-4.921c.046-.426-.715-.106-.844-.046a.7.7,0,0,0-.335.487c-.084.3.129,5.043.129,5.043s-.046.3-.213.335-1.057.441-1.034.631.38.145.38.145.7-.084.806-.106.129.167.129.167.023.19.038.418.213.548.357.548.487-.319.616-.426a.736.736,0,0,0,.19-.312s-.023-.319-.023-.548.3-.19.3-.19,2.365-.335,2.594-.38.357.251.357.251a19.157,19.157,0,0,0,.122,2.008c.106.51.548.145.783-.023a.727.727,0,0,0,.251-.487s-.023-1.141-.023-1.5a.876.876,0,0,1,.441-.654c.061-.023.4-.3.335-.418-.053-.106-.517-.038-.669-.038m16.74-3.073a26.136,26.136,0,0,0-.335-2.677c-.046-.335-.259-.243-.259-.243a6.783,6.783,0,0,0-.578.4,1.406,1.406,0,0,0-.03,1.141,13.165,13.165,0,0,1,.3,3.354,13.967,13.967,0,0,0,.418,3.415.28.28,0,0,0,.418.221s.38-.388.5-.525a15.655,15.655,0,0,0-.319-2.152c-.053-.548-.137-2.343-.122-2.936m9.332,3.012c-.106,0-1.734.19-1.734.19s-.434.106-.434.228-.038.4.5.479c.1.023.16.145.046.205a4.917,4.917,0,0,1-1.734.54c-.639,0-1.635-.061-1.6-.472s1.8-1.217,2.9-1.369c.228-.038.388-.19.388-.3s.046-.373-.357-.411-2.122-.243-2.122-.578,1.156-.73,2.32-.966c.137-.038.35-.068.434.023s.221.783.768.593a.7.7,0,0,0,.251-.761c-.122-.517-.563-.639-1-.654a8.187,8.187,0,0,0-1.917.35c-.4.145-1.78.662-1.78,1.384s.951.951.951.951.145.038.145.1-.167.1-.167.1-1.612.555-1.612,1.4.89,1.369,2.213,1.369a3.823,3.823,0,0,0,2.829-1.11.881.881,0,0,1,.35-.373c.084-.046.7-.084.7-.479s-.236-.434-.342-.434M12.123,45.226c-1.445-.578-2.708.837-2.708.837-.16.175-.175.517-.068.578s-.03.221-.03.221a2.633,2.633,0,0,0-.563,1.46c-.03.837.608,1.027,1.2.981a4,4,0,0,0,2.1-1.148c.89-.738,1.521-2.35.068-2.928m-.928,2.89c-.213.145-.92.532-1.3.259s.129-1.27.129-1.27.365-.624.434-.707a.417.417,0,0,0,.114-.319c.015-.19.608-.236,1.027-.1s.532.5.517.981-.715,1.012-.92,1.156m115.531-.373a6.817,6.817,0,0,1-2.168-.9,12.4,12.4,0,0,1,1.574-.434c1.506-.449,2.327-1.27,2.327-2.267s-1.78-1.635-3.164-1.894c-3.712-.578-5-.129-5.423.015s-.388.449-.388.449c.1.3.479.205.479.205s1.2-.145,1.331-.145.205.114.274.259a27.491,27.491,0,0,1,.548,3.27,12.738,12.738,0,0,0,.5,2.4c.145.335.35.16.35.16s.274-.213.418-.327.129-.418.091-.593.677-.076.677-.076,3.674.958,3.871,1.012a.448.448,0,0,0,.335-.053s.4-.4.479-.494a.07.07,0,0,0,.015-.076c-.03-.038-.068-.076-.1-.122-.015.015-1.072-.19-2.031-.4m-3.354-1.088c-.175.205-.19-.2-.19-.2s-.129-1.848-.388-3.293a.172.172,0,0,1,.19-.213c.243,0,4.138.434,4.556,1.673a.839.839,0,0,1-.593.783c-.426.19-3.392,1.034-3.575,1.247M96.037,44.883c-1.445-.578-2.715.837-2.715.837-.16.175-.175.517-.061.578s-.03.228-.03.228a2.633,2.633,0,0,0-.563,1.46c-.03.837.608,1.027,1.2.981a3.941,3.941,0,0,0,2.1-1.148c.882-.738,1.514-2.358.068-2.936m-.928,2.89c-.213.145-.913.532-1.3.259s.129-1.27.129-1.27.365-.624.434-.707.145-.213.114-.319c.015-.19.608-.243,1.027-.1s.532.494.517.981-.715,1.012-.92,1.156m48.045-2.822a2.679,2.679,0,0,0-2.708.829c-.16.175-.175.51-.061.578s-.03.221-.03.221a2.666,2.666,0,0,0-.563,1.46c-.03.837.608,1.027,1.2.981a4,4,0,0,0,2.1-1.148c.882-.73,1.506-2.343.061-2.921m-.928,2.883c-.205.145-.913.532-1.3.259s.129-1.27.129-1.27.365-.624.434-.707a.39.39,0,0,0,.114-.319c.015-.19.608-.243,1.027-.1s.525.494.517.981c-.023.487-.707,1.012-.92,1.156m-73.159-1.9a.536.536,0,0,0-.061-.464c-.084-.076-.3-.015-.373,0s-.19-.076-.19-.076-.274-.449-1-.213a4.5,4.5,0,0,0-2.457,1.666,1.735,1.735,0,0,0-.205,1.11c.114,0,.183.046.053.221a1.011,1.011,0,0,0,.852.753c.365.046,1.072-.061,2.168-1.285.114-.145.16-.274.243-.084a5.2,5.2,0,0,0,.662,1.536c.061.129.243.259.365.19a2.528,2.528,0,0,0,.434-.434s.114-.046,0-.259a5.137,5.137,0,0,1-.494-2.662m-1.072.685a3.432,3.432,0,0,1-1.559,1.574c-.129.061-.434-.068-.723-.388-.479-.791.319-1.316.738-1.65s1.377.1,1.377.1a.317.317,0,0,1,.167.365m38.8,1.034a22.034,22.034,0,0,1-2.746.578,2.181,2.181,0,0,1-1.985-.532c-.19-.175-.243-.487-.114-.487,3.483-.145,3.483-1.521,3.483-1.688s-.342-.723-1.384-.723-3.43.981-3.43,2.2.867,2.054,3,2.054a5.312,5.312,0,0,0,3.354-1.08c.563-.54-.175-.319-.175-.319m-4.35-1.635a2.9,2.9,0,0,1,1.331-.319c.175.046.593.129.434.228s-.434.365-1.7.319c0,0-.54.015-.061-.228M64.527,48a22.034,22.034,0,0,1-2.746.578,2.21,2.21,0,0,1-1.993-.532c-.19-.175-.243-.479-.114-.479,3.483-.145,3.483-1.521,3.483-1.681s-.335-.723-1.377-.723-3.438.981-3.438,2.2.867,2.054,3,2.054A5.334,5.334,0,0,0,64.7,48.344c.061-.061.106-.114.145-.16a1.039,1.039,0,0,1-.053-.221.872.872,0,0,0-.266.038m-4.35-1.635a2.9,2.9,0,0,1,1.331-.319c.175.053.593.129.434.221s-.434.373-1.7.319c0,0-.54.015-.061-.221m74.407,1.285a22.034,22.034,0,0,1-2.746.578,2.2,2.2,0,0,1-1.993-.532c-.19-.175-.243-.487-.114-.487,3.483-.145,3.483-1.521,3.483-1.688s-.335-.723-1.377-.723-3.438.981-3.438,2.2a1.808,1.808,0,0,0,.357,1.141h0s.091.053.1.122a3.355,3.355,0,0,0,2.54.791,5.312,5.312,0,0,0,3.354-1.08c.57-.54-.167-.319-.167-.319m-4.343-1.635a2.9,2.9,0,0,1,1.331-.319c.175.046.593.129.434.228s-.434.365-1.7.319c0,0-.548.015-.061-.228M56.518,45.5c-.16-.046-.061-.129-.015-.175.373-.3,1.186-.753,1.156-1.59s-3.385-1.171-3.529-1.186a1.416,1.416,0,0,1-.243-.046s-.084-.319-.145-.319a3.166,3.166,0,0,0-.578.35.836.836,0,0,1-.51.145,4.411,4.411,0,0,0-1.749.205c-.388.228.076.624.365.563s1.476-.16,1.476-.16c.205,0,.243.1.243.1s-.015,2.251-.015,2.358a.546.546,0,0,1-.145.388c-.16.114-.464.221-.388.464s.4.046.494.03.084.145.084.145v1.62c0,.205-.319.1-.319.1s-.494-.16-.639-.19a.3.3,0,0,0-.259.114,3.5,3.5,0,0,1-.51.289c-.145.046-.046.243.145.3a8.555,8.555,0,0,0,5.134-.357,2.031,2.031,0,0,0,1.491-1.909c.046-.761-1.384-1.194-1.544-1.24m-2.692-1.993s.023-.205.183-.19,2.905.289,2.905.844-1.323,1.141-2.67,1.491c-.122.038-.373.084-.373-.106s-.046-2.038-.046-2.038M56.533,48.1a20.532,20.532,0,0,1-2.358.426s-.281.023-.3-.228,0-1.529,0-1.529.1-.479.479-.517,2.213-.129,2.586.335.593,1.255-.4,1.514m82.743-1.574A3.884,3.884,0,0,0,137.8,46.4a10.149,10.149,0,0,1-3.035-.015c-.16-.084-.388-.1-.015-.259a6.472,6.472,0,0,1,1.559-.373c.274,0,.814.114.943.015s.4-.3.373-.494-.175-.479-.319-.5a5.039,5.039,0,0,0-.593.03s-3.544.624-3.544,1.734c0,.89,1.476,1,2.32.974a.448.448,0,0,1,.342-.023,1.172,1.172,0,0,1,.145-.015c.51-.076,2.761-.335,2.761-.03s-1.171.532-1.574.548-.821-.03-.981-.259a.67.67,0,0,0-.35-.236q-.148.011-.342.023a.837.837,0,0,0-.106.068c-.319.3-.449.624-.259.867a2.149,2.149,0,0,0,1.491.593,4.158,4.158,0,0,0,2.951-1.46c.144-.19.312-.9-.289-1.057m18.649.205-.563,1.628c-.061.167-.1.289-.122.373q-.034-.114-.114-.342l-.555-1.658h-.464v2.343h.3V47.081l.677,1.993h.281l.677-1.962v1.962h.3V46.732Zm-3.978.281h.768v2.061h.312V47.013h.776v-.274h-1.856Z" transform="translate(0 -9.684)" fill="#657a81"/>
    <path id="パス_50" data-name="パス 50" d="M95.189,17.608l.053-.281A1.423,1.423,0,0,1,94.93,15.4a1.214,1.214,0,0,1,1.088-.517,1.408,1.408,0,0,1,1.2-1.27,1.244,1.244,0,0,1,1.2.563l.388-.243a14.5,14.5,0,0,0,.852-7.028A20.067,20.067,0,0,0,97.151-.03a10.988,10.988,0,0,1,4.525,4.9s2.905,5.286.038,7.545c0,0-1.308,1.05-2.183.4l-.076.114-.35.943a1.483,1.483,0,0,1,1.164.441,12.451,12.451,0,0,1,2.054-.517s-.7-2.4,2.251-3.126c0,0,3.1-.761,7.081,2.548a10.211,10.211,0,0,1,3.194,4.084,16.078,16.078,0,0,0-9.484-3.506,15.766,15.766,0,0,0-4.974.753,1.234,1.234,0,0,1-.053,1.369,1.3,1.3,0,0,1,.426,2.031s-.236.517-1.148.441a1.343,1.343,0,0,1-1.567,1.46,17.181,17.181,0,0,0,3.385,5.126,17.963,17.963,0,0,0,7.765,4.252s-4.046,1.346-9.173-1.5c0,0-3.012-1.422-2.753-4.312,0,0,.167-1.552,1.186-1.7,0,0,.145.068.053-.335l-.738-1.6a1.033,1.033,0,0,1-.631-.685s-.076.221-.7.205l-.608,1.164.038.167.114.061s1.46.578.738,3.347c0,0-1.643,3.917-9.3,3.94a9.05,9.05,0,0,1-2.753-.517,17.581,17.581,0,0,0,8.191-3.841,18.718,18.718,0,0,0,3.331-4.29,1.447,1.447,0,0,1-1.057-1.407" transform="translate(-20.273)" fill="#657a81"/>
    <path id="パス_51" data-name="パス 51" d="M94.373,13.932s-.867-2.807-5.636-3.879c0,0-3.164-.586-3.757-2.054,0,0,1.392,4.921,4.366,7.636A13.291,13.291,0,0,0,92.122,17.5a1.29,1.29,0,0,0,1.46-.236s1.62-.981.791-3.331" transform="translate(-20.347 -1.923)" fill="#657a81"/>
    <path id="パス_52" data-name="パス 52" d="M100.61,19.5a.6.6,0,1,1,.6.6.612.612,0,0,1-.6-.6" transform="translate(-24.089 -4.532)" fill="#657a81"/>
    <path id="パス_53" data-name="パス 53" d="M103.1,19.881a.6.6,0,1,1,.6.6.6.6,0,0,1-.6-.6" transform="translate(-24.685 -4.623)" fill="#657a81"/>
    <path id="パス_54" data-name="パス 54" d="M103.77,22.371a.6.6,0,1,1,.6.6.6.6,0,0,1-.6-.6" transform="translate(-24.846 -5.22)" fill="#657a81"/>
    <path id="パス_55" data-name="パス 55" d="M101.85,24.251a.6.6,0,1,1,.6.6.6.6,0,0,1-.6-.6" transform="translate(-24.386 -5.67)" fill="#657a81"/>
    <path id="パス_56" data-name="パス 56" d="M101.33,21.791a.6.6,0,1,1,.6.6.6.6,0,0,1-.6-.6" transform="translate(-24.262 -5.081)" fill="#657a81"/>
    <path id="パス_57" data-name="パス 57" d="M98.86,21.141a.6.6,0,1,1,.6.6.6.6,0,0,1-.6-.6" transform="translate(-23.67 -4.925)" fill="#657a81"/>
    <path id="パス_58" data-name="パス 58" d="M99.48,23.491a.6.6,0,1,1,.6.6.6.6,0,0,1-.6-.6" transform="translate(-23.819 -5.488)" fill="#657a81"/>
    <path id="パス_59" data-name="パス 59" d="M94.91,19.8a35.111,35.111,0,0,1-3.27-1.354s-.631,1.924-3.491,1.164c0,0-3.879-1.848-4.381-8.45,0,0-.091-3.1.373-3.438,0,0,1.034,5.529,4.989,8.594a12.72,12.72,0,0,0,5.841,3.141" transform="translate(-20.055 -1.856)" fill="#657a81"/>
    <path id="パス_60" data-name="パス 60" d="M107.137,20.432s.015-1.24,1.993-1.369a14.148,14.148,0,0,1,6.746,1.019,21.225,21.225,0,0,1,3.788,2.031,3.286,3.286,0,0,0-2.251.076,19.208,19.208,0,0,0-3.088,1.217s-2.845,1.407-5.324.205a2.776,2.776,0,0,1-1.863-3.179" transform="translate(-25.642 -4.558)" fill="#657a81"/>
    <path id="パス_61" data-name="パス 61" d="M99.934.95a18.359,18.359,0,0,1,2.251,8.412s.129,4.4-2.183,4.145a3.081,3.081,0,0,1-1.445-.373S96.527,11.8,97.242,8.2a15.645,15.645,0,0,1,2-4.2A4.609,4.609,0,0,0,99.934.95" transform="translate(-23.246 -0.235)" fill="#657a81"/>
    <path id="パス_62" data-name="パス 62" d="M104.394,26.3a1.859,1.859,0,0,0,.259,1.772,10.741,10.741,0,0,0,3.164,3.658s1.552,1.369,5.932,2.936c0,0-1.179-.388-1.886-3.286,0,0-.981-5.233-4.1-6.153a2.688,2.688,0,0,0-3.369,1.072" transform="translate(-24.967 -5.996)" fill="#657a81"/>
    <path id="パス_63" data-name="パス 63" d="M84.98,32.56a3.922,3.922,0,0,0,1.833-2.624s1.11-4.054,2.685-5.233c0,0,2.457-2.495,4.678-.791,0,0,1.7,1.034.038,2.943-.008-.008-1.947,3.7-9.233,5.7" transform="translate(-20.347 -5.59)" fill="#657a81"/>
  </g>
</svg>
