<svg xmlns="http://www.w3.org/2000/svg" width="300" height="80" viewBox="0 0 300 80">
  <g id="logo" transform="translate(24.001 0.03)">
    <rect id="長方形_2" data-name="長方形 2" width="300" height="80" transform="translate(-24.001 -0.03)" fill="#8e8e8e" opacity="0"/>
    <path id="パス_22" data-name="パス 22" d="M83.348,58.13a4.531,4.531,0,0,1,3.334,1.326,4.624,4.624,0,0,1-3.274,7.9,4.517,4.517,0,0,1-3.3-1.339,4.383,4.383,0,0,1-1.351-3.237,4.713,4.713,0,0,1,.608-2.336,4.549,4.549,0,0,1,3.979-2.312m.049.852a3.594,3.594,0,0,0-1.85.511,3.662,3.662,0,0,0-1.363,1.363,3.8,3.8,0,0,0-.487,1.923,3.724,3.724,0,0,0,5.586,3.213,3.514,3.514,0,0,0,1.351-1.351,3.911,3.911,0,0,0,.487-1.911,3.662,3.662,0,0,0-.487-1.886A3.835,3.835,0,0,0,83.4,58.982" transform="translate(17.085 12.616)" fill="#fff"/>
    <path id="パス_23" data-name="パス 23" d="M87.83,58.31h.9v3.3l3.5-3.3H93.4l-4.211,3.943,4.539,4.831H92.564L88.731,63v4.089h-.9Z" transform="translate(19.052 12.655)" fill="#fff"/>
    <rect id="長方形_28" data-name="長方形 28" width="0.876" height="8.774" transform="translate(114.463 70.965)" fill="#fff"/>
    <path id="パス_24" data-name="パス 24" d="M96.84,67.084V58.31h.183l5.841,6.717V58.31h.864v8.774h-.195L97.741,60.44v6.644Z" transform="translate(21.006 12.655)" fill="#fff"/>
    <path id="パス_25" data-name="パス 25" d="M107.989,58.31l4.089,8.774h-.949L109.741,64.2h-3.785l-1.363,2.884h-.974l4.15-8.774h.219Zm-.11,1.862-1.509,3.176h2.994Z" transform="translate(22.477 12.655)" fill="#fff"/>
    <path id="パス_26" data-name="パス 26" d="M110.28,58.31h.9l1.789,6.316,2.519-6.316h.183l2.483,6.316,1.825-6.316h.888l-2.519,8.774h-.158l-2.6-6.644-2.653,6.644h-.17Z" transform="translate(23.922 12.655)" fill="#fff"/>
    <path id="パス_27" data-name="パス 27" d="M122.837,58.31l4.089,8.774h-.949L124.6,64.2h-3.785l-1.363,2.884h-.974l4.15-8.774h.207Zm-.11,1.862-1.5,3.176h2.994Z" transform="translate(25.7 12.655)" fill="#fff"/>
    <path id="パス_28" data-name="パス 28" d="M9.882,48.015c-3.566-.414-6.291-.621-7.5-.669-.487-.049-1.083-.183-.353-.511s5.987-2.361,7.63-2c.389.134.462.353.742.231a5.575,5.575,0,0,0,.876-.718s.438-.389.049-.621-1.472-.523-3.785-.17A16.389,16.389,0,0,0,.451,46.335a1.359,1.359,0,0,0-.414,1.229A1.562,1.562,0,0,0,1.546,48.7c1.083.11,5.646.389,6.425.462s4.673.608,4.466,2.263c-.122.974-.864,1.9-3.541,1.9a6.305,6.305,0,0,1-3.955-1.326c-.073-.207-.195-.6-.462-.475s-1.412.645-1.412.645-.389.365.134.876S5,54.61,8.312,54.61s5.829-1.545,5.829-4.235c0-.523-.694-1.959-4.259-2.361m17.73-.414c0-.438-.268-.292-.268-.292s-.535.389-.828.621-.426.657-.462,1.533-.925,3.858-2.385,3.821-1.351-4.357-1.351-4.357c.1-.828-.3-.633-.3-.633s-.389.268-.864.608-.231,2.556-.061,3.724a2.275,2.275,0,0,0,2.117,2.117c1.132,0,2.75-2.215,2.908-2.483s.268,0,.292.085a4.108,4.108,0,0,0,.925,1.789.5.5,0,0,0,.657.134s.5-.523.669-.767a.5.5,0,0,0-.037-.669c-.986-1.168-1.01-4.795-1.01-5.233m16.769,1.2c-1.022.122-3.736,2.458-4.064,2.714s-.341.122-.365-.061a89.653,89.653,0,0,0-1.29-10.173c-.1-.6-.523-.243-.523-.243a7.515,7.515,0,0,0-.754.633,1.367,1.367,0,0,0-.146.669s.231,2.057.292,2.288a.637.637,0,0,1-.17.487s-4.064.462-4.211.462-.11-.158-.134-.706-.377-3.42-.438-3.833-.694.061-1.059.268-.231.888-.231.888.1,3.273.11,3.5-1.059.4-1.363.45a4.8,4.8,0,0,0-1.862.608c-.584.4-.231.657.4.864a5.991,5.991,0,0,0,2.349-.389c.6-.17.608.6.608.6s0,2.02-.024,2.75a20.246,20.246,0,0,0,.17,3.237c.17,1.18.9.535,1.363.195s.292-1.266.316-1.594-.292-4.636-.268-5.1.6-.572.864-.633c2.616-.061,3.14-.256,3.407-.365a.246.246,0,0,1,.353.11s.572,5.914.669,6.912.389,1.326.73,1.326.73-.584,1.132-1.168c1.984-2.9,2.981-3.1,3.274-3.274s.475.134.608.353a5.17,5.17,0,0,1,.487,2.592,1.024,1.024,0,0,0,.56.986c.207.122.426-.158.852-.523a1.149,1.149,0,0,0,.426-.8,13.789,13.789,0,0,0-.207-2.142c-.243-1.375-.827-2-1.862-1.886m115.424-2.58a13.149,13.149,0,0,0,3.091-.243c.28-.085,1.509-.852,1.047-1.241-.17-.134-.548-.085-.742-.061,0,0-4.064.462-4.223.462s-.11-.146-.134-.706-.389-3.432-.438-3.833-.694.061-1.059.268-.231.888-.231.888.1,3.273.122,3.5-1.059.4-1.363.438a4.657,4.657,0,0,0-1.862.621c-.584.4-.231.657.4.864a5.772,5.772,0,0,0,2.349-.389c.6-.17.621.6.621.6s0,2.02-.024,2.75a21.636,21.636,0,0,0,.17,3.225c.17,1.18.9.535,1.375.195s.292-1.278.3-1.594-.292-4.649-.268-5.1c.012-.475.6-.584.864-.645m84.3,0a13.149,13.149,0,0,0,3.091-.243c.28-.085,1.509-.852,1.047-1.241-.17-.134-.548-.085-.742-.061,0,0-4.064.462-4.211.462s-.11-.146-.134-.706-.389-3.432-.438-3.833-.694.061-1.059.268-.231.888-.231.888.1,3.273.11,3.5-1.059.4-1.363.438a4.759,4.759,0,0,0-1.874.621c-.584.4-.231.657.414.864a5.772,5.772,0,0,0,2.349-.389c.6-.17.621.6.621.6s0,2.02-.024,2.75a21.636,21.636,0,0,0,.17,3.225c.17,1.18.9.535,1.375.195s.292-1.278.3-1.594-.292-4.649-.268-5.1c.012-.475.6-.584.864-.645m-116.228,2.58c-1.022.122-3.736,2.458-4.064,2.714s-.341.122-.365-.061a89.656,89.656,0,0,0-1.29-10.173c-.1-.6-.523-.256-.523-.256a6.337,6.337,0,0,0-.754.633,1.288,1.288,0,0,0-.146.681s.231,2.057.292,2.288l.17,1.789s.292,3.018.5,5.111a7.107,7.107,0,0,0-.8.195c-.511.158-4.807,1.947-6.036,1.5s-1.8-.742-1.777-2.178,1.509-1.594,1.8-1.594.852.049,1,.329.462.8.718.694a7.556,7.556,0,0,0,1.059-.925.433.433,0,0,0-.024-.487,2.141,2.141,0,0,0-2.336-1.156c-1.57.389-4.369,2.641-3.858,4.369s1.716,2.7,3.1,2.47a27.9,27.9,0,0,0,7.253-2.154c.037.329.061.608.073.754.1,1,.389,1.326.73,1.326s.73-.584,1.132-1.168c1.984-2.9,2.994-3.1,3.274-3.273s.487.134.608.353a5.042,5.042,0,0,1,.487,2.592,1.01,1.01,0,0,0,.56.986c.207.122.426-.158.852-.523a1.149,1.149,0,0,0,.426-.8,13.79,13.79,0,0,0-.207-2.142c-.231-1.375-.828-2-1.85-1.886m-63.645-.329s-2.409-.231-2.981-.256a6.9,6.9,0,0,0-2.154.767.506.506,0,0,1-.56-.049s-.329-.6-.462-.852-.487-.073-.487-.073a4.619,4.619,0,0,0-.535.511.889.889,0,0,0-.183.876,23.939,23.939,0,0,1,.548,3.091,1.728,1.728,0,0,0-.45.061,35.254,35.254,0,0,1-4.393.925,3.52,3.52,0,0,1-3.188-.852c-.3-.28-.389-.767-.183-.767,5.573-.231,5.573-2.434,5.573-2.689s-.548-1.156-2.215-1.156-5.488,1.57-5.488,3.517,1.387,3.286,4.807,3.286a8.5,8.5,0,0,0,5.367-1.728,3.264,3.264,0,0,0,.219-.243l.17,1.278s.207.56.487.56.548-.353.876-.718a1.1,1.1,0,0,0,.207-.9s-.207-1.545-.231-1.947a1.078,1.078,0,0,1,.256-.949,5.165,5.165,0,0,1,1.9-.535,13.223,13.223,0,0,1,2.312.329.543.543,0,0,0,.584-.256,1.72,1.72,0,0,0,.487-.608c.292-.5-.28-.621-.28-.621m-14.214,1.46a4.8,4.8,0,0,1,2.13-.511c.28.085.949.207.694.353s-.694.6-2.714.511c-.012,0-.888.024-.11-.353m188.464-1.9s-2.41-.231-2.981-.256a6.9,6.9,0,0,0-2.154.767.506.506,0,0,1-.56-.049s-.329-.584-.462-.852-.487-.073-.487-.073a4.621,4.621,0,0,0-.535.511.909.909,0,0,0-.183.876c.3.925.767,4.722.767,4.722s.207.572.487.572.535-.365.876-.718a1.053,1.053,0,0,0,.207-.9s-.207-1.545-.231-1.947a1.068,1.068,0,0,1,.256-.949,5.165,5.165,0,0,1,1.9-.535,12.139,12.139,0,0,1,2.312.341.568.568,0,0,0,.6-.256,1.891,1.891,0,0,0,.487-.621c.28-.5-.292-.633-.292-.633M74.451,48.015c-1.752-.3-6.364,3.359-6.8,3.724s-.487-.122-.487-.122-.3-2.178-.438-2.677-.414-.353-.414-.353a9.792,9.792,0,0,0-1.229.535.551.551,0,0,0-.207.608,32.349,32.349,0,0,1,.511,4.04.861.861,0,0,0,.767.767c.925.024,3.322-2.726,3.955-3.359a7.642,7.642,0,0,1,2.848-1.825c.974-.256,1.083-.024,1.85.645s.669,3.541.694,3.979a.9.9,0,0,0,.791.718c.231,0,.645-.329.949-.584s.134-2.336-.158-3.821c-.256-1.509-.876-1.971-2.629-2.276m72.309,2.008c-.231,0-.268-.706-.268-.706s.037-6.754.037-7.095a.334.334,0,0,0-.341-.341,4.19,4.19,0,0,0-.974.5,1.23,1.23,0,0,0-.365,1.083s-.061,5.914,0,6.218-.207.681-1.156.706-3.772.535-3.955.535-.365-.341-.4-.876a57.694,57.694,0,0,1-.073-7.873c.073-.681-1.144-.17-1.351-.073a1.122,1.122,0,0,0-.535.779c-.134.475.207,8.068.207,8.068s-.073.475-.341.535-1.692.706-1.655,1.01.608.231.608.231,1.12-.134,1.29-.17.207.268.207.268.037.3.061.669.341.876.572.876.779-.511.986-.681a1.178,1.178,0,0,0,.3-.5s-.036-.511-.036-.876.475-.3.475-.3,3.785-.535,4.15-.608.572.4.572.4a30.651,30.651,0,0,0,.195,3.213c.17.815.876.231,1.253-.037a1.164,1.164,0,0,0,.4-.779s-.036-1.825-.036-2.4a1.4,1.4,0,0,1,.706-1.047c.1-.036.645-.475.535-.669-.085-.17-.827-.061-1.071-.061m26.784-4.916a41.822,41.822,0,0,0-.535-4.284c-.073-.535-.414-.389-.414-.389a10.853,10.853,0,0,0-.925.645,2.25,2.25,0,0,0-.049,1.825,21.065,21.065,0,0,1,.487,5.367,22.348,22.348,0,0,0,.669,5.464.448.448,0,0,0,.669.353s.608-.621.8-.84-.438-2.568-.511-3.444-.219-3.748-.195-4.7m14.932,4.819c-.17,0-2.775.3-2.775.3s-.694.17-.694.365-.061.645.8.767c.158.037.256.231.073.329a7.868,7.868,0,0,1-2.775.864c-1.022,0-2.616-.1-2.556-.754s2.884-1.947,4.636-2.19c.365-.061.621-.3.621-.487s.073-.6-.572-.657-3.4-.389-3.4-.925,1.85-1.168,3.712-1.545c.219-.061.56-.11.694.037s.353,1.253,1.229.949a1.127,1.127,0,0,0,.4-1.217c-.195-.828-.9-1.022-1.594-1.047a13.1,13.1,0,0,0-3.067.56c-.633.231-2.848,1.059-2.848,2.215s1.521,1.521,1.521,1.521.231.061.231.158-.268.158-.268.158-2.58.888-2.58,2.239,1.424,2.19,3.541,2.19,4.162-1.083,4.527-1.777a1.409,1.409,0,0,1,.56-.6c.134-.073,1.12-.134,1.12-.767s-.377-.694-.548-.694M19.4,48.112c-2.312-.925-4.332,1.339-4.332,1.339-.256.28-.28.827-.11.925s-.049.353-.049.353a4.213,4.213,0,0,0-.9,2.336c-.049,1.339.974,1.643,1.923,1.57s1.886-.621,3.359-1.838c1.424-1.18,2.434-3.76.11-4.685m-1.485,4.624c-.341.231-1.472.852-2.081.414s.207-2.032.207-2.032.584-1,.694-1.132a.667.667,0,0,0,.183-.511c.024-.3.974-.377,1.643-.158s.852.8.828,1.57-1.144,1.618-1.472,1.85m184.849-.6a10.906,10.906,0,0,1-3.468-1.436,19.848,19.848,0,0,1,2.519-.694c2.409-.718,3.724-2.032,3.724-3.626s-2.848-2.616-5.062-3.03c-5.939-.925-8.007-.207-8.677.024s-.621.718-.621.718c.158.487.767.329.767.329s1.923-.231,2.13-.231.329.183.438.414a43.985,43.985,0,0,1,.876,5.233,20.382,20.382,0,0,0,.8,3.845c.231.535.56.256.56.256s.438-.341.669-.523.207-.669.146-.949,1.083-.122,1.083-.122,5.878,1.533,6.194,1.618a.717.717,0,0,0,.535-.085s.645-.633.767-.791a.112.112,0,0,0,.024-.122c-.049-.061-.11-.122-.158-.195-.024.024-1.716-.3-3.249-.633M197.4,50.4c-.28.329-.3-.316-.3-.316s-.207-2.957-.621-5.269a.275.275,0,0,1,.3-.341c.389,0,6.62.694,7.289,2.677a1.342,1.342,0,0,1-.949,1.253c-.681.3-5.427,1.655-5.72,2M153.66,47.564c-2.312-.925-4.344,1.339-4.344,1.339-.256.28-.28.827-.1.925s-.049.365-.049.365a4.213,4.213,0,0,0-.9,2.336c-.049,1.339.974,1.643,1.923,1.57s1.886-.608,3.359-1.838c1.412-1.18,2.422-3.772.11-4.7m-1.485,4.624c-.341.231-1.46.852-2.081.414s.207-2.032.207-2.032.584-1,.694-1.132.231-.341.183-.511c.024-.3.974-.389,1.643-.158s.852.791.827,1.57-1.144,1.618-1.472,1.85m76.873-4.515c-2.312-.925-4.332,1.326-4.332,1.326-.256.28-.28.815-.1.925s-.049.353-.049.353a4.265,4.265,0,0,0-.9,2.336c-.049,1.339.974,1.643,1.923,1.57s1.886-.621,3.359-1.838c1.412-1.168,2.409-3.748.1-4.673m-1.485,4.612c-.329.231-1.46.852-2.081.414s.207-2.032.207-2.032.584-1,.694-1.132a.625.625,0,0,0,.183-.511c.024-.3.974-.389,1.643-.158s.84.791.827,1.57c-.036.779-1.132,1.618-1.472,1.85M110.508,49.244a.857.857,0,0,0-.1-.742c-.134-.122-.487-.024-.6,0s-.3-.122-.3-.122-.438-.718-1.594-.341-3.1,1.2-3.931,2.665a2.775,2.775,0,0,0-.329,1.777c.183,0,.292.073.085.353a1.617,1.617,0,0,0,1.363,1.2c.584.073,1.716-.1,3.468-2.057.183-.231.256-.438.389-.134a8.323,8.323,0,0,0,1.059,2.458c.1.207.389.414.584.3a4.045,4.045,0,0,0,.694-.694s.183-.073,0-.414a8.219,8.219,0,0,1-.791-4.259m-1.716,1.1a5.492,5.492,0,0,1-2.495,2.519c-.207.1-.694-.11-1.156-.621-.767-1.266.511-2.105,1.18-2.641s2.2.158,2.2.158a.507.507,0,0,1,.268.584m62.087,1.655a35.253,35.253,0,0,1-4.393.925,3.49,3.49,0,0,1-3.176-.852c-.3-.28-.389-.779-.183-.779,5.573-.231,5.573-2.434,5.573-2.7s-.548-1.156-2.215-1.156S161,49,161,50.947s1.387,3.286,4.795,3.286a8.5,8.5,0,0,0,5.367-1.728c.9-.864-.28-.511-.28-.511m-6.961-2.616a4.637,4.637,0,0,1,2.13-.511c.28.073.949.207.694.365s-.694.584-2.726.511c0,0-.864.024-.1-.365m-60.675,3.176a35.255,35.255,0,0,1-4.393.925,3.536,3.536,0,0,1-3.188-.852c-.3-.28-.389-.767-.183-.767,5.573-.231,5.573-2.434,5.573-2.689s-.535-1.156-2.2-1.156-5.5,1.57-5.5,3.517,1.387,3.286,4.807,3.286a8.534,8.534,0,0,0,5.367-1.716c.1-.1.17-.183.231-.256a1.662,1.662,0,0,1-.085-.353,1.4,1.4,0,0,0-.426.061m-6.961-2.616a4.637,4.637,0,0,1,2.13-.511c.28.085.949.207.694.353s-.694.6-2.726.511c0,0-.864.024-.1-.353m119.051,2.057a35.253,35.253,0,0,1-4.393.925,3.52,3.52,0,0,1-3.188-.852c-.3-.28-.389-.779-.183-.779,5.573-.231,5.573-2.434,5.573-2.7s-.535-1.156-2.2-1.156-5.5,1.57-5.5,3.517a2.892,2.892,0,0,0,.572,1.825h0s.146.085.158.195c.73.791,2.044,1.266,4.064,1.266a8.5,8.5,0,0,0,5.367-1.728c.913-.864-.268-.511-.268-.511m-6.949-2.616a4.637,4.637,0,0,1,2.13-.511c.28.073.949.207.694.365s-.694.584-2.726.511c0,0-.876.024-.1-.365M90.429,48.55c-.256-.073-.1-.207-.024-.28.6-.487,1.9-1.2,1.85-2.543s-5.415-1.874-5.646-1.9a2.266,2.266,0,0,1-.389-.073s-.134-.511-.231-.511a5.066,5.066,0,0,0-.925.56,1.338,1.338,0,0,1-.815.231,7.057,7.057,0,0,0-2.8.329c-.621.365.122,1,.584.9s2.361-.256,2.361-.256c.329,0,.389.158.389.158s-.024,3.6-.024,3.772a.874.874,0,0,1-.231.621c-.256.183-.742.353-.621.742s.645.073.791.049.134.231.134.231v2.592c0,.329-.511.158-.511.158s-.791-.256-1.022-.3a.476.476,0,0,0-.414.183,5.6,5.6,0,0,1-.815.462c-.231.073-.073.389.231.487a13.687,13.687,0,0,0,8.214-.572A3.25,3.25,0,0,0,92.9,50.534c.073-1.217-2.215-1.911-2.47-1.984m-4.308-3.188s.037-.329.292-.3,4.649.462,4.649,1.351-2.117,1.825-4.271,2.385c-.195.061-.6.134-.6-.17s-.073-3.261-.073-3.261m4.332,7.35a32.85,32.85,0,0,1-3.772.681s-.45.037-.487-.365,0-2.446,0-2.446.158-.767.767-.828,3.541-.207,4.138.535.949,2.008-.645,2.422m132.388-2.519a6.213,6.213,0,0,0-2.361-.207c-.645.073-3.8.389-4.855-.024-.256-.134-.621-.158-.024-.414a10.356,10.356,0,0,1,2.495-.6c.438,0,1.3.183,1.509.024s.645-.487.6-.791-.28-.767-.511-.8a8.062,8.062,0,0,0-.949.049s-5.671,1-5.671,2.775c0,1.424,2.361,1.606,3.712,1.558a.716.716,0,0,1,.548-.037,1.875,1.875,0,0,1,.231-.024c.815-.122,4.417-.535,4.417-.049s-1.874.852-2.519.876-1.314-.049-1.57-.414a1.073,1.073,0,0,0-.56-.377q-.237.018-.548.037a1.336,1.336,0,0,0-.17.11c-.511.487-.718,1-.414,1.387a3.438,3.438,0,0,0,2.385.949,6.653,6.653,0,0,0,4.722-2.336c.231-.3.5-1.436-.462-1.692m29.839.329-.9,2.6c-.1.268-.158.462-.195.6q-.055-.183-.183-.548l-.888-2.653h-.742V54.27h.475V51.081l1.083,3.188h.45l1.083-3.14v3.14h.475V50.521Zm-6.364.45h1.229v3.3h.5v-3.3h1.241v-.438h-2.969Z" transform="translate(0 8.773)" fill="#fff"/>
    <path id="パス_29" data-name="パス 29" d="M101.5,28.19l.085-.45a2.277,2.277,0,0,1-.5-3.079,1.942,1.942,0,0,1,1.74-.828,2.253,2.253,0,0,1,1.923-2.032,1.991,1.991,0,0,1,1.923.9l.621-.389s1.984-4.113,1.363-11.244A32.108,32.108,0,0,0,104.64-.03s4.259,1.984,7.241,7.837c0,0,4.649,8.458.061,12.072,0,0-2.093,1.679-3.493.645l-.122.183-.56,1.509a2.372,2.372,0,0,1,1.862.706,19.922,19.922,0,0,1,3.286-.828s-1.12-3.845,3.6-5c0,0,4.965-1.217,11.329,4.077,0,0,3.785,2.787,5.111,6.535a25.724,25.724,0,0,0-15.175-5.61s-5.05-.037-7.959,1.2a1.975,1.975,0,0,1-.085,2.19,2.072,2.072,0,0,1,.681,3.249s-.377.828-1.838.706a2.149,2.149,0,0,1-2.507,2.336,27.489,27.489,0,0,0,5.415,8.2,28.74,28.74,0,0,0,12.425,6.8s-6.474,2.154-14.676-2.4c0,0-4.819-2.276-4.405-6.9,0,0,.268-2.483,1.9-2.714,0,0,.231.11.085-.535l-1.18-2.568a1.653,1.653,0,0,1-1.01-1.1s-.122.353-1.12.329l-.974,1.862.061.268.183.1s2.336.925,1.18,5.354c0,0-2.629,6.267-14.883,6.3,0,0-3.407-.183-4.405-.828a28.13,28.13,0,0,0,13.106-6.145s4.077-3.967,5.33-6.863a2.315,2.315,0,0,1-1.692-2.251" transform="translate(18.366)" fill="#fff"/>
    <path id="パス_30" data-name="パス 30" d="M100.009,17.492S98.622,13,90.992,11.286c0,0-5.062-.937-6.012-3.286,0,0,2.227,7.873,6.985,12.218A21.265,21.265,0,0,0,96.407,23.2a2.065,2.065,0,0,0,2.336-.377s2.592-1.57,1.266-5.33" transform="translate(18.434 1.742)" fill="#fff"/>
    <path id="パス_31" data-name="パス 31" d="M100.61,19.861a.961.961,0,1,1,.961.961.98.98,0,0,1-.961-.961" transform="translate(21.824 4.106)" fill="#fff"/>
    <path id="パス_32" data-name="パス 32" d="M103.1,20.241a.961.961,0,1,1,.961.961.963.963,0,0,1-.961-.961" transform="translate(22.364 4.189)" fill="#fff"/>
    <path id="パス_33" data-name="パス 33" d="M103.77,22.731a.961.961,0,1,1,.961.961.956.956,0,0,1-.961-.961" transform="translate(22.51 4.729)" fill="#fff"/>
    <path id="パス_34" data-name="パス 34" d="M101.85,24.611a.961.961,0,1,1,.961.961.963.963,0,0,1-.961-.961" transform="translate(22.093 5.137)" fill="#fff"/>
    <path id="パス_35" data-name="パス 35" d="M101.33,22.151a.961.961,0,1,1,.961.961.963.963,0,0,1-.961-.961" transform="translate(21.98 4.603)" fill="#fff"/>
    <path id="パス_36" data-name="パス 36" d="M98.86,21.5a.961.961,0,1,1,.961.961.956.956,0,0,1-.961-.961" transform="translate(21.444 4.462)" fill="#fff"/>
    <path id="パス_37" data-name="パス 37" d="M99.48,23.851a.961.961,0,1,1,.961.961.963.963,0,0,1-.961-.961" transform="translate(21.579 4.972)" fill="#fff"/>
    <path id="パス_38" data-name="パス 38" d="M101.6,27.045a56.178,56.178,0,0,1-5.233-2.166s-1.01,3.079-5.586,1.862c0,0-6.206-2.957-7.009-13.52,0,0-.146-4.965.6-5.5,0,0,1.655,8.847,7.983,13.751,0,0,2.787,3.164,9.346,5.026" transform="translate(18.169 1.681)" fill="#fff"/>
    <path id="パス_39" data-name="パス 39" d="M107.161,21.286s.024-1.984,3.188-2.19c0,0,6.3-.657,10.794,1.631a33.96,33.96,0,0,1,6.06,3.249,5.257,5.257,0,0,0-3.6.122,30.733,30.733,0,0,0-4.941,1.947s-4.551,2.251-8.518.329a4.442,4.442,0,0,1-2.981-5.087" transform="translate(23.231 4.13)" fill="#fff"/>
    <path id="パス_40" data-name="パス 40" d="M101.641.95a29.374,29.374,0,0,1,3.6,13.459s.207,7.034-3.493,6.632a4.929,4.929,0,0,1-2.312-.6s-3.249-2.13-2.105-7.9a25.031,25.031,0,0,1,3.2-6.717A7.374,7.374,0,0,0,101.641.95" transform="translate(21.06 0.213)" fill="#fff"/>
    <path id="パス_41" data-name="パス 41" d="M104.463,27.078a2.974,2.974,0,0,0,.414,2.835s1.01,2.519,5.062,5.853c0,0,2.482,2.19,9.492,4.7,0,0-1.886-.621-3.018-5.257,0,0-1.57-8.372-6.559-9.845-.012.012-3.493-1.509-5.391,1.716" transform="translate(22.62 5.432)" fill="#fff"/>
    <path id="パス_42" data-name="パス 42" d="M84.98,38.106s1.947-.828,2.933-4.2c0,0,1.777-6.486,4.3-8.372,0,0,3.931-3.991,7.484-1.266,0,0,2.726,1.655.061,4.709-.012-.012-3.115,5.926-14.773,9.127" transform="translate(18.434 5.064)" fill="#fff"/>
  </g>
</svg>
